<?xml version="1.0" standalone="no"?>
<!DOCTYPE svg PUBLIC "-//W3C//DTD SVG 20010904//EN"
 "http://www.w3.org/TR/2001/REC-SVG-20010904/DTD/svg10.dtd">
<svg version="1.0" xmlns="http://www.w3.org/2000/svg"
 width="512.000000pt" height="512.000000pt" viewBox="0 0 512.000000 512.000000"
 preserveAspectRatio="xMidYMid meet">
<metadata>
Created by potrace 1.11, written by Peter Selinger 2001-2013
</metadata>
<g transform="translate(0.000000,512.000000) scale(0.100000,-0.100000)"
fill="#000000" stroke="none">
<path d="M2379 5116 c-2 -2 -40 -6 -83 -10 -44 -4 -82 -9 -85 -11 -4 -2 -34
-7 -66 -10 -117 -14 -472 -111 -499 -136 -6 -5 -16 -9 -23 -9 -15 0 -131 -52
-228 -101 -630 -322 -1104 -900 -1299 -1584 -14 -49 -27 -102 -30 -118 -3 -15
-7 -35 -10 -45 -3 -9 -7 -34 -11 -56 -3 -21 -7 -41 -9 -45 -4 -6 -12 -68 -26
-201 -8 -81 -5 -463 5 -520 3 -19 12 -75 20 -125 29 -174 78 -357 142 -520 37
-93 123 -273 161 -335 12 -19 29 -48 38 -65 19 -35 138 -207 156 -227 7 -7 29
-34 48 -58 102 -132 286 -307 454 -434 226 -169 500 -308 781 -395 123 -38
289 -74 405 -87 30 -3 76 -10 102 -14 49 -7 473 -5 518 4 14 2 45 7 70 10 25
4 92 16 150 27 58 12 116 23 130 26 39 7 316 101 369 124 481 216 858 530
1133 945 194 291 342 664 393 994 4 25 9 52 10 61 19 103 27 466 13 609 -60
597 -321 1143 -755 1575 -201 202 -487 397 -748 511 -44 20 -89 39 -100 44
-86 38 -365 119 -465 134 -19 3 -46 8 -60 11 -14 3 -45 8 -70 11 -25 3 -56 8
-70 10 -28 6 -456 15 -461 10z m306 -431 c138 -6 152 -7 300 -36 295 -57 592
-190 850 -381 265 -196 510 -496 656 -804 46 -97 132 -336 143 -399 2 -16 7
-41 11 -55 3 -14 7 -36 10 -50 3 -14 7 -34 9 -45 2 -11 7 -49 11 -85 4 -36 9
-74 11 -85 5 -26 5 -334 0 -360 -2 -11 -7 -51 -11 -90 -15 -153 -73 -378 -142
-545 -171 -415 -484 -779 -873 -1015 -191 -117 -475 -230 -650 -260 -19 -3
-53 -10 -75 -15 -22 -4 -69 -11 -105 -15 -36 -4 -74 -9 -85 -11 -27 -6 -334
-5 -365 0 -14 3 -52 7 -85 11 -380 39 -822 234 -1120 494 -72 62 -263 262
-292 304 -15 23 -38 53 -49 66 -33 36 -169 267 -210 355 -50 111 -101 254
-131 371 -28 111 -28 110 -37 180 -4 28 -10 64 -12 81 -11 74 -14 117 -15 252
0 129 3 187 17 292 40 298 137 573 296 832 36 58 70 112 77 120 6 7 38 49 72
93 121 155 372 384 514 466 22 13 56 34 75 47 103 70 460 216 575 235 17 3 62
12 100 20 90 20 137 26 260 33 55 4 101 8 103 9 1 1 12 1 25 -1 12 -2 76 -6
142 -9z"/>
<path d="M2335 4289 c-4 -5 -9 -94 -20 -319 -3 -58 -7 -139 -10 -180 -7 -110
-16 -274 -20 -360 -5 -118 -16 -319 -20 -385 -20 -316 -24 -513 -13 -615 8
-70 6 -66 129 -175 75 -65 664 -590 669 -595 3 -3 41 -36 85 -75 44 -38 82
-72 85 -75 3 -3 46 -41 95 -85 50 -44 95 -84 101 -90 6 -5 31 -28 55 -49 24
-22 56 -50 71 -64 l27 -25 101 103 c55 57 100 107 100 111 0 5 -15 24 -32 42
-18 19 -80 85 -138 147 -58 62 -121 130 -140 150 -47 50 -239 256 -269 289
-25 28 -231 247 -342 365 -129 137 -154 169 -155 195 -1 34 -13 243 -19 351
-6 101 -12 222 -20 385 -4 66 -8 147 -10 180 -2 33 -7 121 -10 195 -4 74 -8
158 -10 185 -2 28 -7 117 -11 200 -3 82 -8 157 -9 165 -2 8 -4 20 -4 25 -1 11
-260 15 -266 4z"/>
</g>
</svg>
